<svg xmlns="http://www.w3.org/2000/svg" viewBox="0 0 520 96" role="img" aria-label="Pitaya Academy">
  <defs>
    <linearGradient id="skin" x1="0" y1="0" x2="1" y2="1">
      <stop offset="0" stop-color="#f26b3a"/>
      <stop offset="1" stop-color="#f03a72"/>
    </linearGradient>
    <linearGradient id="accent" x1="0" y1="0" x2="1" y2="1">
      <stop offset="0" stop-color="#5ec1a1"/>
      <stop offset="1" stop-color="#7ee7c5"/>
    </linearGradient>
  </defs>
  <rect width="520" height="96" rx="14" fill="#0d0f12"/>
  <g transform="translate(16,12)">
    <!-- Icon -->
    <g>
      <rect width="72" height="72" rx="14" fill="#0d0f12" stroke="url(#accent)"/>
      <ellipse cx="36" cy="36" rx="28" ry="30" fill="url(#skin)"/>
      <ellipse cx="36" cy="36" rx="23" ry="25" fill="#f6f7f9" stroke="url(#accent)" stroke-width="2"/>
      <g fill="#1e2328" opacity="0.9">
        <circle cx="26" cy="28" r="1.2"/>
        <circle cx="34" cy="26" r="1.2"/>
        <circle cx="42" cy="28" r="1.2"/>
        <circle cx="30" cy="36" r="1.2"/>
        <circle cx="38" cy="38" r="1.2"/>
        <circle cx="46" cy="36" r="1.2"/>
        <circle cx="28" cy="46" r="1.2"/>
        <circle cx="36" cy="44" r="1.2"/>
        <circle cx="44" cy="46" r="1.2"/>
      </g>
      <g transform="translate(26,16)">
        <rect x="0" y="0" width="20" height="10" rx="2.2" fill="rgba(0,0,0,0.06)"/>
        <circle cx="5" cy="5" r="1.4" fill="#cfd7df"/>
        <circle cx="10" cy="5" r="1.4" fill="#cfd7df"/>
        <circle cx="15" cy="5" r="1.4" fill="#cfd7df"/>
      </g>
    </g>
    <!-- Wordmark -->
    <g transform="translate(96,14)" fill="#e6edf3">
      <path d="M0 50V0h24c12 0 19 7 19 16s-7 16-19 16H12v18H0zm12-41v16h10c6 0 9-4 9-8s-3-8-9-8H12z"/>
      <path d="M52 50V0h12v50H52z"/>
      <path d="M70 50V0h12l18 26V0h12v50h-12L82 22v28H70z"/>
      <path d="M124 50V0h34v12h-22v7h20v12h-20v7h22v12h-34z"/>
      <path d="M162 50V0h34v12h-22v26h22v12h-34z"/>
      <path d="M200 50V0h14l12 18L238 0h14v50h-12V22l-12 16-12-16v28h-12z"/>
    </g>
  </g>
</svg>