<svg xmlns="http://www.w3.org/2000/svg" viewBox="0 0 64 64" role="img" aria-label="Pitaya Academy logo">
  <defs>
    <linearGradient id="skin" x1="0" y1="0" x2="1" y2="1">
      <stop offset="0" stop-color="#f26b3a"/>
      <stop offset="1" stop-color="#f03a72"/>
    </linearGradient>
    <linearGradient id="accent" x1="0" y1="0" x2="1" y2="1">
      <stop offset="0" stop-color="#5ec1a1"/>
      <stop offset="1" stop-color="#7ee7c5"/>
    </linearGradient>
    <filter id="shadow" x="-20%" y="-20%" width="140%" height="140%">
      <feDropShadow dx="0" dy="2" stdDeviation="2" flood-color="#000" flood-opacity="0.35"/>
    </filter>
  </defs>
  <rect width="64" height="64" rx="14" fill="#0d0f12"/>
  <g transform="translate(10 8)" filter="url(#shadow)">
    <!-- Dragon fruit oval with pink skin and white flesh -->
    <ellipse cx="22" cy="24" rx="22" ry="24" fill="url(#skin)"/>
    <ellipse cx="22" cy="24" rx="18" ry="20" fill="#f6f7f9" stroke="url(#accent)" stroke-width="1.5"/>
    <!-- Green fins/leaf tips -->
    <path d="M6 10 l-4 -5 5 1z M38 12 l4 -6 -1 6z M7 36 l-5 6 6 -2z M37 38 l6 4 -5 1z" fill="url(#accent)"/>
    <!-- Data-like seeds: small dots arranged as a subtle grid/constellation -->
    <g fill="#1e2328" opacity="0.85">
      <circle cx="12" cy="18" r="1"/>
      <circle cx="18" cy="16" r="1"/>
      <circle cx="24" cy="18" r="1"/>
      <circle cx="30" cy="16" r="1"/>
      <circle cx="15" cy="23" r="1"/>
      <circle cx="21" cy="22" r="1"/>
      <circle cx="27" cy="24" r="1"/>
      <circle cx="33" cy="22" r="1"/>
      <circle cx="12" cy="28" r="1"/>
      <circle cx="18" cy="30" r="1"/>
      <circle cx="24" cy="29" r="1"/>
      <circle cx="30" cy="31" r="1"/>
    </g>
    <!-- Subtle 2x2 brick studs hint (education/LEGO) -->
    <g transform="translate(14,6)">
      <rect x="0" y="0" width="16" height="8" rx="2" fill="rgba(0,0,0,0.06)"/>
      <circle cx="4" cy="4" r="1.2" fill="#cfd7df"/>
      <circle cx="8" cy="4" r="1.2" fill="#cfd7df"/>
      <circle cx="12" cy="4" r="1.2" fill="#cfd7df"/>
    </g>
  </g>
</svg>