<svg xmlns="http://www.w3.org/2000/svg" viewBox="0 0 96 96" role="img" aria-label="Pitaya Academy mark outline">
  <rect width="96" height="96" rx="18" fill="#0d0f12"/>
  <g transform="translate(14 12)" fill="none" stroke="#e6edf3" stroke-width="2">
    <path d="M34 0c14 2 25 11 31 22 6 11 5 24-5 34-10 10-26 18-36 18S6 66 2 55c-4-11 2-22 9-31C18 14 22 8 29 4c2-1 3-2 5-2z"/>
    <path d="M34 10c10 0 18 6 22 13 4 7 4 15-2 22-6 7-18 13-26 13s-14-5-17-12c-3-7 1-14 6-21 5-6 10-12 17-15z"/>
    <g stroke="#e6edf3" stroke-linecap="round">
      <path d="M18 36h8m6 0h8m6 0h8" opacity="0.5"/>
    </g>
    <g fill="#e6edf3" stroke="none">
      <circle cx="22" cy="30" r="1.3"/>
      <circle cx="30" cy="28" r="1.3"/>
      <circle cx="38" cy="30" r="1.3"/>
      <circle cx="26" cy="36" r="1.3"/>
      <circle cx="34" cy="38" r="1.3"/>
      <circle cx="42" cy="36" r="1.3"/>
      <circle cx="24" cy="44" r="1.3"/>
      <circle cx="32" cy="46" r="1.3"/>
      <circle cx="40" cy="44" r="1.3"/>
    </g>
    <g transform="translate(24,14)" stroke="#e6edf3">
      <rect x="0" y="0" width="22" height="12" rx="2.5"/>
      <circle cx="6" cy="6" r="1.5"/>
      <circle cx="11" cy="6" r="1.5"/>
      <circle cx="16" cy="6" r="1.5"/>
    </g>
    <path d="M10 22l-6-7 7 2zM56 20l8-8-3 10zM12 54l-8 10 10-3zM54 56l10 6-9 2z"/>
  </g>
</svg>